<svg width="25" height="24" viewBox="0 0 25 24" fill="none" xmlns="http://www.w3.org/2000/svg">
<g clip-path="url(#clip0_1976_9649)">
<path d="M8.86068 0.78931C6.4627 1.62119 4.39469 3.20012 2.96041 5.29419C1.52612 7.38826 0.80116 9.88708 0.892005 12.4236C0.982851 14.9602 1.88472 17.4007 3.46513 19.3868C5.04555 21.3729 7.22121 22.7999 9.67255 23.4581C11.6599 23.9709 13.7421 23.9934 15.7401 23.5237C17.55 23.1171 19.2234 22.2475 20.5963 20.9999C22.0252 19.6618 23.0624 17.9596 23.5963 16.0762C24.1765 14.028 24.2797 11.8742 23.8982 9.77994H12.7382V14.4093H19.2013C19.0721 15.1477 18.7953 15.8524 18.3875 16.4812C17.9796 17.1101 17.449 17.6503 16.8276 18.0693C16.0384 18.5916 15.1487 18.9428 14.2157 19.1006C13.2799 19.2746 12.3202 19.2746 11.3844 19.1006C10.436 18.9047 9.53875 18.5132 8.75005 17.9512C7.48283 17.0542 6.53132 15.7798 6.0313 14.3099C5.52297 12.8125 5.52297 11.1892 6.0313 9.69181C6.38722 8.64222 6.97561 7.68656 7.75255 6.89618C8.64166 5.97509 9.7673 5.31668 11.006 4.9932C12.2446 4.66973 13.5485 4.69368 14.7744 5.06244C15.7322 5.35629 16.608 5.86996 17.3319 6.56244C18.0607 5.83744 18.7882 5.11056 19.5144 4.38181C19.8894 3.98994 20.2982 3.61681 20.6676 3.21556C19.5623 2.18716 18.265 1.38688 16.85 0.86056C14.2732 -0.0750836 11.4538 -0.100228 8.86068 0.78931Z" fill="white"/>
<path d="M8.86058 0.789367C11.4535 -0.100776 14.2729 -0.0762934 16.85 0.858742C18.2652 1.38864 19.5619 2.19277 20.6656 3.22499C20.2906 3.62624 19.895 4.00124 19.5125 4.39124C18.785 5.11749 18.0581 5.84124 17.3318 6.56249C16.6079 5.87001 15.7321 5.35635 14.7743 5.06249C13.5488 4.69244 12.245 4.66711 11.006 4.98926C9.76699 5.31141 8.64067 5.96861 7.75058 6.88874C6.97364 7.67912 6.38525 8.63477 6.02933 9.68437L2.14246 6.67499C3.53372 3.91604 5.94261 1.80566 8.86058 0.789367Z" fill="#E33629"/>
<path d="M1.11116 9.6563C1.31992 8.62087 1.66677 7.61816 2.14241 6.67505L6.02928 9.69192C5.52095 11.1893 5.52095 12.8126 6.02928 14.31C4.73428 15.31 3.43866 16.315 2.14241 17.325C0.952064 14.9556 0.589031 12.256 1.11116 9.6563Z" fill="#F8BD00"/>
<path d="M12.7381 9.77808H23.8981C24.2797 11.8723 24.1764 14.0262 23.5963 16.0743C23.0623 17.9577 22.0252 19.66 20.5963 20.9981C19.3419 20.0193 18.0819 19.0481 16.8275 18.0693C17.4494 17.6498 17.9802 17.1091 18.3881 16.4796C18.796 15.85 19.0726 15.1446 19.2013 14.4056H12.7381C12.7363 12.8643 12.7381 11.3212 12.7381 9.77808Z" fill="#587DBD"/>
<path d="M2.14062 17.3249C3.43687 16.3249 4.7325 15.3199 6.0275 14.3099C6.52851 15.7803 7.48138 17.0547 8.75 17.9512C9.54116 18.5106 10.4403 18.8989 11.39 19.0912C12.3257 19.2652 13.2855 19.2652 14.2213 19.0912C15.1543 18.9335 16.044 18.5822 16.8331 18.0599C18.0875 19.0387 19.3475 20.0099 20.6019 20.9887C19.2292 22.2369 17.5558 23.1072 15.7456 23.5143C13.7476 23.984 11.6655 23.9615 9.67813 23.4487C8.10632 23.029 6.63814 22.2892 5.36563 21.2756C4.01886 20.2061 2.91882 18.8585 2.14062 17.3249Z" fill="#319F43"/>
</g>
<defs>
<clipPath id="clip0_1976_9649">
<rect width="24" height="24" fill="white" transform="translate(0.5)"/>
</clipPath>
</defs>
</svg>
