<svg width="76" height="88" viewBox="0 0 76 88" fill="none" xmlns="http://www.w3.org/2000/svg">
<g clip-path="url(#clip0_1976_9822)">
<path d="M0.5 21.9902L38.1287 0.308105L75.9611 21.9902V65.2867L38.1966 87.3081L0.5 65.2867V21.9902Z" fill="url(#paint0_linear_1976_9822)"/>
<path fill-rule="evenodd" clip-rule="evenodd" d="M63.0499 45.2634C63.0499 51.4124 60.8518 57.044 57.2041 61.4043L66.5 70.3045L63 73.3394L58.5 75.3626L49.9819 67.3263C46.4701 69.2373 42.4503 70.3224 38.1789 70.3224C24.4431 70.3224 13.308 59.103 13.308 45.2634C13.308 31.4237 24.4431 20.2045 38.1789 20.2045C51.9147 20.2045 63.0499 31.4237 63.0499 45.2634Z" fill="#7D7D66" fill-opacity="0.8"/>
<path d="M38.1292 19.2325C51.5863 19.2326 62.5003 30.2027 62.5003 43.7404C62.5002 49.755 60.3456 55.2622 56.7708 59.5265L56.4769 59.8771L73.2962 76.6964L73.3099 76.7091C74.2123 77.4834 74.7826 78.6307 74.7826 79.9113C74.7823 82.2394 72.8948 84.1269 70.5667 84.1271C69.2093 84.1271 68.0009 83.4863 67.2289 82.4884L67.2103 82.464L67.1888 82.4425L50.2874 65.4054L50.0228 65.1388L49.6937 65.3185C46.2533 67.187 42.315 68.2472 38.1292 68.2472C24.6723 68.2472 13.7584 57.2778 13.7581 43.7404C13.7581 30.2027 24.6721 19.2325 38.1292 19.2325Z" fill="#ECECE8" stroke="#7D7D66"/>
<path d="M38.145 59.3825C46.7928 59.3825 53.8032 52.3336 53.8032 43.6383C53.8032 34.9431 46.7928 27.8942 38.145 27.8942C29.4972 27.8942 22.4868 34.9431 22.4868 43.6383C22.4868 52.3336 29.4972 59.3825 38.145 59.3825Z" fill="url(#paint1_linear_1976_9822)"/>
<path d="M50.9542 34.3069L35.7534 52.0191L29.7138 44.8256" stroke="#ECECE8" stroke-width="6.11999" stroke-linecap="round" stroke-linejoin="round"/>
</g>
<defs>
<linearGradient id="paint0_linear_1976_9822" x1="38.2305" y1="0.308105" x2="38.2305" y2="87.3081" gradientUnits="userSpaceOnUse">
<stop stop-color="#ECECE8"/>
<stop offset="1" stop-color="#D7D7D0"/>
</linearGradient>
<linearGradient id="paint1_linear_1976_9822" x1="38.145" y1="59.3825" x2="38.145" y2="27.8942" gradientUnits="userSpaceOnUse">
<stop stop-color="#A0A08F"/>
<stop offset="1" stop-color="#5F5F54"/>
</linearGradient>
<clipPath id="clip0_1976_9822">
<rect width="75" height="87" fill="white" transform="translate(0.5 0.308105)"/>
</clipPath>
</defs>
</svg>
